<?xml version="1.0" encoding="utf-8"?>
<!-- Generator: Adobe Illustrator 27.3.1, SVG Export Plug-In . SVG Version: 6.00 Build 0)  -->
<svg version="1.1" id="logo-28" xmlns="http://www.w3.org/2000/svg" xmlns:xlink="http://www.w3.org/1999/xlink" x="0px" y="0px"
	 viewBox="0 0 161 44" style="enable-background:new 0 0 161 44;" xml:space="preserve">
<style type="text/css">
	.st0{fill:#B6EFA2;}
	.st1{fill:#88E169;}
	.st2{fill:#55AE36;}
	.st3{fill:none;stroke:#FFFFFF;stroke-miterlimit:10;}
	.st4{fill:#FFFFFF;}
</style>
<g>
	<path class="st0" d="M40.9,34.1c3.8-3.4,6.1-8,6.1-13.1C47,10.5,36.9,2,24.5,2S2,10.5,2,21s10.1,19,22.5,19c3.5,0,6.9-0.7,9.8-1.9
		c3.5,2.2,7.8,3.7,12.5,3.4C44.3,40.8,42.2,38.3,40.9,34.1z"/>
	<path class="st1" d="M41,21c0,7.7-7.4,14-16.5,14S8,28.7,8,21S15.4,7,24.5,7S41,13.3,41,21z"/>
	<path class="st2" d="M35,21c0,5-4.7,9-10.5,9S14,26,14,21s4.7-9,10.5-9S35,16,35,21z"/>
	<g>
		<path class="st3" d="M26.9,24.9h-5c-1.3,0-2.3-1-2.3-2.3v-2.9c0-1.3,1-2.3,2.3-2.3h5c1.3,0,2.3,1,2.3,2.3v2.9
			C29.2,23.9,28.2,24.9,26.9,24.9z"/>
		<path class="st4" d="M30.1,22.6h-0.4c-0.2,0-0.3-0.1-0.3-0.3v-2.2c0-0.2,0.1-0.3,0.3-0.3h0.4c0.2,0,0.3,0.1,0.3,0.3v2.2
			C30.4,22.5,30.3,22.6,30.1,22.6z"/>
		<path class="st4" d="M19.2,22.6h-0.3c-0.2,0-0.3-0.1-0.3-0.3v-2.2c0-0.2,0.1-0.3,0.3-0.3h0.3c0.2,0,0.3,0.1,0.3,0.3v2.2
			C19.5,22.5,19.4,22.6,19.2,22.6z"/>
		<ellipse class="st4" cx="22.2" cy="21.2" rx="0.7" ry="2"/>
		<ellipse class="st4" cx="26.8" cy="21.2" rx="0.7" ry="2"/>
		<path class="st3" d="M22,14.7c1.7,0.4,2.5,0.9,2.5,0.9v2.1"/>
	</g>
	<g>
		<path class="st2" d="M52.5,11h12.3c2.7,1,4.1,2.9,4.1,5.7v5.4c0,1.8-0.5,3.2-1.4,4c-0.9,1.3-2.6,2-5,2H59c-0.3,0-0.5,0.2-0.5,0.5
			v7.6c-0.1,0.3-0.3,0.4-0.6,0.4h-5.1c-0.4,0-0.6-0.2-0.6-0.7V11.3L52.5,11z M58.5,16.5v6.3l0.3,0.3h2.5c0.6,0.1,1.1-0.2,1.4-0.9
			v-3.4l0.1-1.6c-0.1-0.8-0.5-1.2-1.4-1.2H59C58.7,16,58.5,16.1,58.5,16.5z"/>
		<path class="st2" d="M90.5,11c1.8,0.3,3,0.8,3.8,1.7c0.5,0.9,0.8,1.9,0.8,3.1l0.1,15.3c-0.1,1.2-0.6,2.5-1.6,3.7
			c-1.2,1.2-2.6,1.8-3.9,1.9H78.9c-0.2,0-0.3-0.2-0.5-0.7v-24c0-0.6,0.2-0.9,0.6-0.9H90.5z M84.5,15.7v15.9c0,0.2,0.1,0.3,0.3,0.3
			h2.6c1.1,0,1.7-0.4,1.7-1.2V16.9c0-0.9-0.7-1.3-2.1-1.2H84.5z"/>
		<path class="st2" d="M105.1,11H122c0.3,0,0.5,0.2,0.5,0.7v4c0,0.5-0.3,0.8-0.8,0.8h-9.5l-0.3,0.3v4.6c0,0.2,0.1,0.4,0.3,0.5h1h6.3
			c0.2,0.1,0.3,0.3,0.3,0.6v4.4c0,0.4-0.2,0.6-0.6,0.6h-7.2l-0.2,0.2v8.7l-0.3,0.3h-6.6c-0.2,0-0.3-0.4-0.3-1.2l0.1-23.7l-0.1-0.1
			v-0.1C104.9,11.2,105,11,105.1,11z"/>
		<path class="st2" d="M132,11h6.3c0.4,0,1.1,0.9,2,2.8l2.7,4.4h0.2c2.7-4.8,4-7.1,4.2-7.2l0.3-0.1h6.3v0.3c-5.3,9.1-8,13.8-8,14.1
			v11l-0.3,0.3h-5.5l-0.3-0.3v-11c-0.1-0.4-2.8-5.1-8-14.1V11z"/>
	</g>
</g>
</svg>
